# xmcd
# 
# Track frame offsets:
#     150
#     26490
#     53967
# 
# Disc length: 1051
# 
# Revision: 1
# Processed by: cddbd v1.5.2PL0 Copyright (c) Steve Scherf et al.
# Submitted via: fre:ac v1.0.17
# 
DISCID=1e041903
DTITLE=ケツメイシ - 聖なる夜に ／ 冬物語
DYEAR=2007
DGENRE=JPop
TTITLE0=聖なる夜に
TTITLE1=冬物語
TTITLE2=ずっと二人で
EXTD=
EXTT0=
EXTT1=
EXTT2=
PLAYORDER=
